<svg width="443" height="489" viewBox="0 0 443 489" fill="none" xmlns="http://www.w3.org/2000/svg">
<g filter="url(#filter0_dd_2435_8152)">
<path fill-rule="evenodd" clip-rule="evenodd" d="M53.4336 468.667H319.042V469.9H53.4336V468.667Z" fill="#3FB1B5"/>
<path fill-rule="evenodd" clip-rule="evenodd" d="M300.443 481H8.08301V480.046H300.443V481Z" fill="#66B0F0"/>
<path d="M299.153 4.9209V52.7702C299.153 62.1411 291.508 69.7535 282.097 69.7535H228.816C238.227 69.7535 245.872 62.1643 245.872 52.7702V4.9209H299.153Z" fill="white"/>
<path fill-rule="evenodd" clip-rule="evenodd" d="M245.291 4.34277H299.733V52.7706C299.733 62.4609 291.829 70.3323 282.097 70.3323H228.816V69.1754C237.907 69.1754 245.291 61.8446 245.291 52.7706V4.34277ZM235.126 69.1754H282.097C291.187 69.1754 298.572 61.822 298.572 52.7706V5.49967H246.453V52.7706C246.453 60.2659 241.746 66.6501 235.126 69.1754Z" fill="#66B0F0"/>
<path d="M274.545 0.293945H270.246V10.4978H274.545V0.293945Z" fill="#FFCF2D"/>
<path d="M283.654 23.1086C283.05 23.1086 282.446 22.8773 281.958 22.4376L280.169 20.8643C279.611 20.3784 278.867 20.3784 278.31 20.8643L276.614 22.3682C275.614 23.2475 274.22 23.2475 273.198 22.3682L271.641 21.0031C271.083 20.5172 270.34 20.5172 269.782 21.0031L268.341 22.2757C267.342 23.1549 265.948 23.1549 264.926 22.2757L263.741 21.2345C263.183 20.7486 262.439 20.7486 261.882 21.2345L260.604 22.3682C259.605 23.2475 258.21 23.2475 257.188 22.3682L256.003 21.327C255.445 20.8411 254.702 20.8411 254.144 21.327C253.912 21.5353 253.54 21.5121 253.331 21.2807C253.122 21.0494 253.145 20.6791 253.377 20.4709C254.376 19.5917 255.771 19.5917 256.793 20.4709L257.978 21.5121C258.536 21.998 259.279 21.998 259.837 21.5121L261.115 20.3784C262.114 19.4991 263.508 19.4991 264.531 20.3784L265.716 21.4196C266.273 21.9055 267.017 21.9055 267.575 21.4196L269.015 20.147C270.014 19.2677 271.409 19.2677 272.431 20.147L273.988 21.5121C274.546 21.998 275.289 21.998 275.847 21.5121L277.543 20.0081C278.542 19.1289 279.936 19.1289 280.959 20.0081L282.748 21.5815C283.306 22.0674 284.049 22.0674 284.607 21.5815L286.466 19.9387C287.465 19.0595 288.859 19.0595 289.881 19.9387C290.114 20.147 290.137 20.5172 289.928 20.7486C289.719 20.9799 289.347 21.0031 289.115 20.7948C288.557 20.3089 287.813 20.3089 287.256 20.7948L285.397 22.4376C284.839 22.8773 284.258 23.1086 283.654 23.1086Z" fill="#66B0F0"/>
<path d="M283.654 32.6174C283.05 32.6174 282.446 32.386 281.958 31.9464L280.169 30.373C279.611 29.8871 278.867 29.8871 278.31 30.373L276.614 31.877C275.614 32.7562 274.22 32.7562 273.198 31.877L271.641 30.5119C271.083 30.026 270.34 30.026 269.782 30.5119L268.341 31.7844C267.342 32.6637 265.948 32.6637 264.926 31.7844L263.741 30.7432C263.183 30.2573 262.439 30.2573 261.882 30.7432L260.604 31.877C259.605 32.7562 258.21 32.7562 257.188 31.877L256.003 30.8358C255.445 30.3499 254.702 30.3499 254.144 30.8358C253.912 31.044 253.54 31.0209 253.331 30.7895C253.122 30.5581 253.145 30.1879 253.377 29.9797C254.376 29.1004 255.771 29.1004 256.793 29.9797L257.978 31.0209C258.536 31.5068 259.279 31.5068 259.837 31.0209L261.115 29.8871C262.114 29.0079 263.508 29.0079 264.531 29.8871L265.716 30.9283C266.273 31.4142 267.017 31.4142 267.575 30.9283L269.015 29.6558C270.014 28.7765 271.409 28.7765 272.431 29.6558L273.988 31.0209C274.546 31.5068 275.289 31.5068 275.847 31.0209L277.543 29.5169C278.542 28.6377 279.936 28.6377 280.959 29.5169L282.748 31.0903C283.306 31.5762 284.049 31.5762 284.607 31.0903L286.466 29.4475C287.465 28.5683 288.859 28.5683 289.881 29.4475C290.114 29.6558 290.137 30.026 289.928 30.2573C289.719 30.4887 289.347 30.5119 289.115 30.3036C288.557 29.8177 287.813 29.8177 287.256 30.3036L285.397 31.9464C284.839 32.4091 284.258 32.6174 283.654 32.6174Z" fill="#66B0F0"/>
<path d="M283.654 42.1272C283.05 42.1272 282.446 41.8958 281.958 41.4562L280.169 39.8828C279.611 39.3969 278.867 39.3969 278.31 39.8828L276.614 41.3868C275.614 42.266 274.22 42.266 273.198 41.3868L271.641 40.0216C271.083 39.5357 270.34 39.5357 269.782 40.0216L268.341 41.2942C267.342 42.1734 265.948 42.1734 264.926 41.2942L263.741 40.253C263.183 39.7671 262.439 39.7671 261.882 40.253L260.604 41.3868C259.605 42.266 258.21 42.266 257.188 41.3868L256.003 40.3456C255.445 39.8597 254.702 39.8597 254.144 40.3456C253.912 40.5538 253.54 40.5307 253.331 40.2993C253.122 40.0679 253.145 39.6977 253.377 39.4895C254.376 38.6102 255.771 38.6102 256.793 39.4895L257.978 40.5307C258.536 41.0166 259.279 41.0166 259.837 40.5307L261.115 39.3969C262.114 38.5177 263.508 38.5177 264.531 39.3969L265.716 40.4381C266.273 40.924 267.017 40.924 267.575 40.4381L269.015 39.1655C270.014 38.2863 271.409 38.2863 272.431 39.1655L273.988 40.5307C274.546 41.0166 275.289 41.0166 275.847 40.5307L277.543 39.0267C278.542 38.1475 279.936 38.1475 280.959 39.0267L282.748 40.6001C283.306 41.086 284.049 41.086 284.607 40.6001L286.466 38.9573C287.465 38.078 288.859 38.078 289.881 38.9573C290.114 39.1655 290.137 39.5357 289.928 39.7671C289.719 39.9985 289.347 40.0216 289.115 39.8134C288.557 39.3275 287.813 39.3275 287.256 39.8134L285.397 41.4562C284.839 41.9189 284.258 42.1272 283.654 42.1272Z" fill="#66B0F0"/>
<path d="M283.654 51.6594C283.05 51.6594 282.446 51.428 281.958 50.9884L280.169 49.415C279.611 48.9291 278.867 48.9291 278.31 49.415L276.614 50.919C275.614 51.7982 274.22 51.7982 273.198 50.919L271.641 49.5539C271.083 49.068 270.34 49.068 269.782 49.5539L268.341 50.8264C267.342 51.7057 265.948 51.7057 264.926 50.8264L263.741 49.7852C263.183 49.2993 262.439 49.2993 261.882 49.7852L260.604 50.919C259.605 51.7982 258.21 51.7982 257.188 50.919L256.003 49.8778C255.445 49.3919 254.702 49.3919 254.144 49.8778C253.912 50.086 253.54 50.0629 253.331 49.8315C253.122 49.6001 253.145 49.2299 253.377 49.0217C254.376 48.1425 255.771 48.1425 256.793 49.0217L257.978 50.0629C258.536 50.5488 259.279 50.5488 259.837 50.0629L261.115 48.9291C262.114 48.0499 263.508 48.0499 264.531 48.9291L265.716 49.9703C266.273 50.4562 267.017 50.4562 267.575 49.9703L269.015 48.6978C270.014 47.8185 271.409 47.8185 272.431 48.6978L273.988 50.0629C274.546 50.5488 275.289 50.5488 275.847 50.0629L277.543 48.5589C278.542 47.6797 279.936 47.6797 280.959 48.5589L282.748 50.1323C283.306 50.6182 284.049 50.6182 284.607 50.1323L286.466 48.4895C287.465 47.6103 288.859 47.6103 289.881 48.4895C290.114 48.6978 290.137 49.068 289.928 49.2993C289.719 49.5307 289.347 49.5539 289.115 49.3456C288.557 48.8597 287.813 48.8597 287.256 49.3456L285.397 50.9884C284.839 51.428 284.258 51.6594 283.654 51.6594Z" fill="#66B0F0"/>
<path d="M354.011 4.91992H316.74V42.0333H354.011V4.91992Z" fill="#FFCF2D"/>
<path d="M324.931 3.33727L322.232 0.00488281L312.391 7.94256L315.09 11.2749L324.931 3.33727Z" fill="#FE5244"/>
<path d="M355.945 11.2562L358.647 7.92676L348.798 -2.5367e-05L346.095 3.32937L355.945 11.2562Z" fill="#FE5244"/>
<path d="M346.135 13.7139H323.526V15.1022H346.135V13.7139Z" fill="white"/>
<path d="M346.135 19.7061H323.526V21.0943H346.135V19.7061Z" fill="white"/>
<path d="M346.135 25.7217H323.526V27.1099H346.135V25.7217Z" fill="white"/>
<path d="M346.135 31.7148H323.526V33.1031H346.135V31.7148Z" fill="white"/>
<path d="M382.457 402.354C381.917 402.19 381.618 402.109 381.618 402.109L375.085 424.006L350.494 417.402C350.295 417.218 350.195 417.116 350.195 417.116C350.195 417.116 250.612 337.234 245.378 298.898C240.164 260.562 281.875 224.188 281.875 224.188C281.875 224.188 370.83 396.281 381.837 401.904C382.057 402.027 382.277 402.17 382.457 402.354Z" fill="#E57281"/>
<path d="M302.931 264.446C299.814 281.519 288.867 316.093 277.541 349.542C260.76 331.039 247.216 312.371 245.378 298.877C242.062 274.587 257.624 251.054 269.45 237.11C273.785 233.553 278.459 230.281 283.513 227.357C286.61 233.307 293.781 247.088 302.931 264.446Z" fill="#9A3B82"/>
<path d="M438.352 417.095L401.775 441.119L391.167 439.484L381.399 445.822L384.555 452.446L368.474 463.017C347.159 443.164 350.175 417.341 350.175 417.341L375.066 424.026L381.598 402.129C381.598 402.129 403.952 408.815 420.453 408.242C436.993 407.67 438.352 417.095 438.352 417.095Z" fill="white"/>
<path fill-rule="evenodd" clip-rule="evenodd" d="M381.198 401.371L381.766 401.541L381.598 402.13C381.766 401.541 381.766 401.541 381.766 401.541L381.781 401.546L381.829 401.56C381.871 401.572 381.934 401.591 382.017 401.615C382.183 401.663 382.43 401.734 382.75 401.825C383.39 402.006 384.324 402.263 385.497 402.571C387.843 403.187 391.143 404.003 394.957 404.8C402.595 406.397 412.253 407.914 420.432 407.63C428.817 407.34 433.46 409.583 436.012 412.005C437.282 413.211 438.013 414.441 438.427 415.38C438.633 415.849 438.761 416.245 438.838 416.529C438.876 416.67 438.902 416.784 438.919 416.866C438.927 416.906 438.933 416.939 438.937 416.962C438.939 416.974 438.941 416.984 438.942 416.991L438.943 417.001L438.944 417.004L438.944 417.006C438.944 417.006 438.944 417.007 438.351 417.096L438.944 417.007L439 417.399L401.908 441.761L391.299 440.125L382.172 446.047L385.327 452.668L368.41 463.788L368.07 463.471C357.3 453.441 352.676 441.897 350.745 432.866C349.781 428.351 349.488 424.462 349.437 421.698C349.412 420.316 349.447 419.214 349.488 418.456C349.509 418.076 349.532 417.782 349.549 417.582C349.558 417.482 349.565 417.405 349.571 417.352C349.573 417.326 349.576 417.306 349.577 417.292L349.579 417.276L349.579 417.271L349.58 417.27C349.58 417.269 349.58 417.269 350.175 417.342L349.58 417.269L349.661 416.569L374.661 423.284L381.198 401.371ZM350.71 418.119C350.702 418.24 350.693 418.375 350.685 418.524C350.645 419.255 350.611 420.326 350.636 421.675C350.685 424.373 350.971 428.181 351.916 432.604C353.786 441.352 358.234 452.499 368.538 462.246L383.782 452.226L380.624 445.598L391.035 438.844L401.64 440.479L437.671 416.814C437.608 416.586 437.503 416.266 437.334 415.885C436.977 415.074 436.334 413.984 435.197 412.905C432.934 410.757 428.628 408.574 420.472 408.856C412.15 409.145 402.381 407.605 394.717 406.002C390.88 405.2 387.56 404.379 385.2 403.76C384.019 403.45 383.078 403.19 382.431 403.007C382.268 402.961 382.124 402.92 381.999 402.884L375.471 424.77L350.71 418.119Z" fill="#FE5244"/>
<path fill-rule="evenodd" clip-rule="evenodd" d="M397.3 404.25C397.25 403.794 397.175 403.152 397.074 402.387C396.868 400.833 396.553 398.768 396.115 396.73C395.679 394.703 395.113 392.661 394.393 391.177C394.034 390.439 393.614 389.789 393.112 389.355C392.591 388.905 391.949 388.666 391.234 388.86L391.232 388.86L391.231 388.861C390.516 389.058 390.053 389.61 389.779 390.274C389.508 390.929 389.393 391.747 389.382 392.625C389.359 394.389 389.755 396.575 390.402 398.644C391.048 400.71 391.965 402.722 393.027 404.117C393.556 404.813 394.15 405.392 394.797 405.73C395.462 406.077 396.196 406.173 396.928 405.866C398.165 405.347 399.329 404.158 400.36 402.775C401.405 401.375 402.371 399.696 403.192 398.092C404.014 396.485 404.698 394.938 405.176 393.794C405.416 393.222 405.604 392.749 405.732 392.419C405.797 392.254 405.846 392.124 405.88 392.035C405.896 391.991 405.909 391.957 405.918 391.934L405.928 391.907L405.931 391.898L405.931 391.898C405.931 391.897 405.931 391.897 405.37 391.681C404.809 391.465 404.809 391.465 404.809 391.465L404.809 391.466L404.809 391.467L404.807 391.473L404.798 391.497C404.79 391.518 404.778 391.551 404.762 391.593C404.73 391.678 404.682 391.804 404.619 391.965C404.494 392.287 404.309 392.75 404.074 393.312C403.604 394.437 402.934 395.953 402.13 397.523C401.325 399.096 400.395 400.707 399.408 402.031C398.698 402.983 397.986 403.747 397.3 404.25ZM396.155 404.816C395.9 404.847 395.633 404.789 395.342 404.637C394.91 404.412 394.445 403.984 393.972 403.363C393.029 402.123 392.165 400.259 391.543 398.27C390.922 396.282 390.56 394.232 390.58 392.641C390.59 391.842 390.696 391.202 390.882 390.753C391.064 390.313 391.293 390.114 391.541 390.045C391.789 389.979 392.038 390.033 392.339 390.292C392.659 390.569 392.991 391.048 393.319 391.723C393.972 393.068 394.513 394.99 394.944 396.994C395.373 398.987 395.683 401.016 395.886 402.551C395.988 403.318 396.062 403.959 396.111 404.408C396.129 404.57 396.143 404.708 396.155 404.816Z" fill="#FE5244"/>
<path fill-rule="evenodd" clip-rule="evenodd" d="M437.15 414.344L402.34 436.588L390.787 434.686L378.662 442.103L353.98 441.712L353.999 440.485L378.34 440.871L390.547 433.404L402.086 435.304L436.515 413.304L437.15 414.344Z" fill="#FE5244"/>
<path fill-rule="evenodd" clip-rule="evenodd" d="M388.843 414.841L391.12 403.984L392.292 404.242L390.015 415.099L388.843 414.841Z" fill="#FE5244"/>
<path fill-rule="evenodd" clip-rule="evenodd" d="M393.797 416.068L396.074 405.211L397.246 405.468L394.969 416.325L393.797 416.068Z" fill="#FE5244"/>
<path fill-rule="evenodd" clip-rule="evenodd" d="M398.972 416.947L401.249 406.09L402.421 406.347L400.144 417.204L398.972 416.947Z" fill="#FE5244"/>
<path d="M273.426 215.827C273.426 215.827 288.069 222.82 288.069 248.459C288.069 273.239 232.175 424.989 232.175 424.989L214.975 439.914L197.516 420.347C206.046 412.046 181.554 261.974 273.426 215.827Z" fill="#E57281"/>
<path d="M271.868 468.988L228.4 469.029L220.329 461.791L208.763 461.73L207.924 469.05L190.884 469.07C181.614 439.546 197.596 420.327 197.596 420.327L214.935 439.873L232.255 424.968C232.255 424.968 247.277 443.002 261.461 451.63C275.684 460.278 271.868 468.988 271.868 468.988Z" fill="white"/>
<path fill-rule="evenodd" clip-rule="evenodd" d="M197.581 419.398L214.991 439.024L232.325 424.107L232.711 424.571L232.255 424.969C232.711 424.571 232.711 424.57 232.711 424.571L232.721 424.583L232.753 424.621C232.781 424.655 232.824 424.705 232.88 424.772C232.992 424.905 233.16 425.101 233.378 425.355C233.814 425.862 234.454 426.598 235.266 427.507C236.891 429.327 239.204 431.843 241.96 434.627C247.478 440.204 254.738 446.827 261.767 451.103C268.977 455.487 271.705 459.946 272.578 463.399C273.013 465.118 272.98 466.56 272.835 467.581C272.762 468.091 272.662 468.496 272.577 468.777C272.535 468.918 272.496 469.029 272.468 469.106C272.46 469.127 272.453 469.144 272.447 469.16C272.442 469.175 272.436 469.187 272.432 469.198C272.428 469.209 272.424 469.218 272.421 469.225L272.417 469.234L272.415 469.238C272.415 469.239 272.415 469.239 271.868 468.988L272.415 469.239L272.256 469.601L228.174 469.643L220.102 462.404L209.295 462.346L208.456 469.663L190.447 469.684L190.313 469.258C185.633 454.351 187.325 442.029 190.196 433.429C191.631 429.132 193.36 425.766 194.732 423.471C195.418 422.324 196.016 421.443 196.444 420.847C196.658 420.55 196.83 420.323 196.949 420.169C197.008 420.092 197.055 420.034 197.087 419.994C197.103 419.974 197.116 419.958 197.124 419.948L197.135 419.935L197.137 419.932L197.138 419.93C197.139 419.93 197.139 419.93 197.595 420.327L197.139 419.93L197.581 419.398ZM197.627 421.276C197.561 421.365 197.489 421.464 197.41 421.574C197 422.145 196.421 422.996 195.754 424.112C194.42 426.343 192.732 429.628 191.331 433.826C188.556 442.135 186.897 454.031 191.322 468.456L207.39 468.437L208.229 461.114L220.555 461.179L228.624 468.416L271.444 468.375C271.51 468.148 271.59 467.819 271.649 467.404C271.775 466.522 271.807 465.246 271.418 463.706C270.643 460.642 268.167 456.421 261.154 452.157C253.999 447.804 246.656 441.097 241.118 435.5C238.345 432.698 236.016 430.166 234.381 428.335C233.563 427.419 232.919 426.678 232.478 426.165C232.369 426.038 232.272 425.925 232.188 425.827L214.879 440.723L197.627 421.276Z" fill="#FE5244"/>
<path fill-rule="evenodd" clip-rule="evenodd" d="M252.27 418.674C253.16 418.549 254.018 418.774 254.762 419.434C255.5 420.091 255.84 420.909 255.837 421.807C255.835 422.675 255.515 423.576 255.031 424.453C254.065 426.207 252.326 428.074 250.486 429.762C248.635 431.46 246.636 433.017 245.103 434.147C244.395 434.67 243.785 435.102 243.332 435.417C243.531 435.436 243.773 435.445 244.061 435.441C244.781 435.429 245.688 435.335 246.725 435.176C248.797 434.859 251.325 434.296 253.785 433.683C256.242 433.07 258.617 432.411 260.38 431.905C261.261 431.652 261.988 431.437 262.494 431.285C262.747 431.21 262.946 431.15 263.08 431.109C263.147 431.088 263.199 431.073 263.233 431.062L263.285 431.046C263.285 431.046 263.285 431.046 263.458 431.634C263.63 432.221 263.63 432.221 263.63 432.221L263.577 432.238C263.557 432.244 263.532 432.251 263.502 432.26C263.478 432.268 263.451 432.276 263.421 432.285C263.285 432.326 263.085 432.387 262.83 432.463C262.32 432.615 261.589 432.831 260.704 433.086C258.933 433.595 256.543 434.258 254.068 434.875C251.596 435.491 249.027 436.064 246.902 436.389C245.841 436.552 244.875 436.655 244.08 436.667C243.32 436.679 242.598 436.614 242.114 436.342C241.455 435.972 241.333 435.168 241.356 434.494C241.381 433.763 241.584 432.862 241.9 431.889C242.537 429.933 243.685 427.541 245.065 425.342C246.44 423.151 248.08 421.096 249.722 419.859C250.544 419.241 251.407 418.795 252.27 418.674ZM242.557 434.473C243.009 434.159 243.65 433.707 244.402 433.152C245.917 432.035 247.879 430.506 249.686 428.849C251.504 427.181 253.121 425.423 253.987 423.851C254.421 423.065 254.637 422.378 254.639 421.804C254.64 421.261 254.451 420.783 253.976 420.361C253.505 419.943 252.997 419.81 252.433 419.889C251.844 419.972 251.168 420.293 250.433 420.847C248.961 421.955 247.415 423.867 246.073 426.005C244.736 428.136 243.637 430.436 243.038 432.277C242.748 433.167 242.586 433.917 242.557 434.473Z" fill="#FE5244"/>
<path fill-rule="evenodd" clip-rule="evenodd" d="M188.266 443.479L188.905 442.441L209.155 455.514H223.363L232.332 463.222H272.207V464.449H231.896L222.926 456.741H208.808L188.266 443.479Z" fill="#FE5244"/>
<path fill-rule="evenodd" clip-rule="evenodd" d="M230.273 438.642L237.944 430.791L238.792 431.658L231.121 439.51L230.273 438.642Z" fill="#FE5244"/>
<path fill-rule="evenodd" clip-rule="evenodd" d="M233.788 442.424L241.459 434.573L242.307 435.441L234.636 443.292L233.788 442.424Z" fill="#FE5244"/>
<path fill-rule="evenodd" clip-rule="evenodd" d="M237.665 446.023L245.336 438.172L246.184 439.039L238.513 446.89L237.665 446.023Z" fill="#FE5244"/>
<path d="M273.425 215.827C238.886 233.165 220.787 265.224 211.218 298.898H106.402C79.5731 298.898 59.5766 273.566 65.2299 246.72L72.9209 210.163H255.167C261.919 210.163 268.191 212.249 273.425 215.827Z" fill="#FE5244"/>
<path d="M195.596 250.871L233.331 250.789L227.738 260.174L195.596 250.871Z" fill="#E57281"/>
<path fill-rule="evenodd" clip-rule="evenodd" d="M112.676 209.563C113 209.632 113.208 209.957 113.14 210.289L111.682 217.444C111.682 217.444 111.682 217.444 111.682 217.444C108.244 234.341 120.825 250.196 137.684 250.196H233.005C243.061 235.941 256.185 223.697 273.36 215.072C273.657 214.922 274.016 215.048 274.162 215.352C274.308 215.656 274.185 216.024 273.888 216.173C256.806 224.752 243.775 236.949 233.798 251.167L233.619 251.423H137.684C120.064 251.423 106.915 234.851 110.509 217.194L111.967 210.038C112.035 209.706 112.352 209.494 112.676 209.563Z" fill="white"/>
<path fill-rule="evenodd" clip-rule="evenodd" d="M195.021 250.682C195.113 250.356 195.445 250.168 195.763 250.261L228.252 259.804L227.856 260.487C220.875 272.517 215.739 285.654 211.934 299.049C211.842 299.375 211.51 299.562 211.192 299.467C210.874 299.373 210.691 299.032 210.784 298.707C214.538 285.489 219.588 272.495 226.431 260.545L195.432 251.44C195.114 251.347 194.93 251.007 195.021 250.682Z" fill="white"/>
<path d="M48.4293 111.963L67.6267 189.044H31.8088C10.9533 189.044 -2.47096 166.37 7.19769 147.457L34.7054 93.6232C42.4962 78.391 57.8981 68.8428 74.6984 68.8428H81.1908C59.1367 68.8223 42.9757 90.0861 48.4293 111.963Z" fill="#3FB1B5"/>
<path d="M269.489 91.9659C280.776 91.9659 290.165 90.4325 292.442 88.2857L257.424 165.98C251.091 180.047 237.327 189.043 222.205 189.043C217.77 189.043 213.415 188.266 209.3 186.774C205.185 185.281 201.31 183.093 197.854 180.231L175.78 161.993C175.78 161.993 173.582 175.222 157.901 178.595V210.123H72.9005L48.4292 111.942C42.9757 90.0644 59.1367 68.7803 81.1907 68.7803H140.701C145.955 68.7803 151.129 69.455 156.123 70.7635C169.787 74.3211 182.052 82.5404 190.722 94.3172L219.808 133.819L245.937 87.0793C245.937 87.1202 245.917 87.1816 245.917 87.2225C245.937 89.9418 256.505 91.9659 269.489 91.9659Z" fill="#3FB1B5"/>
<path fill-rule="evenodd" clip-rule="evenodd" d="M48.0853 111.367C48.4065 111.285 48.7315 111.486 48.811 111.815L67.609 189.509C67.6885 189.838 67.4926 190.17 67.1713 190.252C66.85 190.333 66.5251 190.133 66.4455 189.804L47.6476 112.11C47.568 111.781 47.764 111.448 48.0853 111.367Z" fill="white"/>
<path fill-rule="evenodd" clip-rule="evenodd" d="M158.869 144.392C159.11 144.16 159.489 144.172 159.716 144.419L176.416 162.616C176.643 162.863 176.631 163.251 176.39 163.483C176.148 163.715 175.769 163.703 175.543 163.456L158.842 145.259C158.616 145.012 158.627 144.624 158.869 144.392Z" fill="white"/>
<path d="M292.963 87.1405L292.444 88.2855C290.166 90.4527 280.777 91.9657 269.491 91.9657C256.506 91.9657 245.938 89.9416 245.938 87.2632C245.938 87.2223 245.938 87.1609 245.958 87.12C246.318 84.5029 256.746 82.2539 269.511 82.2539C282.256 82.2539 292.604 84.5029 292.963 87.1405C292.963 87.12 292.963 87.12 292.963 87.1405Z" fill="#FE5244"/>
<path d="M303.429 47.8846C303.429 49.05 303.15 50.195 302.63 51.1969C302.111 52.1987 301.352 53.0779 300.413 53.7526L299.953 54.0797L296.378 73.6055C295.798 76.7746 293.96 79.5757 291.304 81.3136L286.409 84.5032L282.534 87.0385L280.736 91.4343C277.4 91.7819 273.584 91.9864 269.509 91.9864C265.394 91.9864 261.519 91.7819 258.143 91.4139V61.1335C258.143 59.825 258.422 58.5369 258.962 57.3511L265.474 42.998C265.474 42.998 272.586 44.7973 269.309 53.7321C266.333 61.8492 273.125 59.7637 276.94 58.312C280.356 57.0035 295.279 49.234 301.112 46.3921C302.191 45.8605 303.429 46.6783 303.429 47.8846Z" fill="#E57281"/>
<path fill-rule="evenodd" clip-rule="evenodd" d="M297.289 65.6817C297.56 65.7336 297.738 66.0006 297.688 66.2781C297.083 69.5865 295.164 72.4888 292.392 74.3025L283.622 80.0276C283.389 80.1794 283.08 80.1095 282.932 79.8715C282.784 79.6335 282.852 79.3175 283.084 79.1657L291.854 73.4411C294.395 71.7789 296.152 69.1199 296.706 66.0901C296.757 65.8126 297.017 65.6297 297.289 65.6817Z" fill="#9A3B82"/>
<path fill-rule="evenodd" clip-rule="evenodd" d="M298.727 57.4004C298.998 57.4523 299.177 57.7194 299.126 57.9968C298.521 61.3053 296.603 64.2076 293.83 66.0212L285.06 71.7463C284.827 71.8981 284.519 71.8282 284.37 71.5902C284.222 71.3522 284.29 71.0362 284.523 70.8844L293.292 65.1598C293.292 65.1597 293.292 65.1597 293.292 65.1596C293.292 65.1596 293.292 65.1596 293.292 65.1596C295.833 63.4974 297.59 60.8385 298.144 57.8088C298.195 57.5314 298.456 57.3485 298.727 57.4004Z" fill="#9A3B82"/>
<path fill-rule="evenodd" clip-rule="evenodd" d="M299.735 54.0303C299.882 54.2687 299.813 54.5845 299.581 54.7358L285.477 63.8956C285.244 64.0468 284.936 63.9762 284.788 63.7379C284.64 63.4995 284.709 63.1837 284.942 63.0324L299.045 53.8726C299.278 53.7213 299.587 53.792 299.735 54.0303Z" fill="#9A3B82"/>
<path d="M287.169 83.9913L286.39 84.5025L282.514 87.0378L280.716 91.4336C277.38 91.7812 273.565 91.9857 269.49 91.9857C265.374 91.9857 261.499 91.7812 258.123 91.4132V82.9077C261.499 82.4988 265.374 82.2739 269.49 82.2739C276.541 82.2534 282.854 82.9282 287.169 83.9913Z" fill="#9A3B82"/>
<path d="M154.266 70.2934C151.37 74.2804 140.583 83.665 104.265 83.665C57.5401 83.665 87.445 68.8622 87.445 68.8622L107.262 34.9834L128.517 48.3346V59.0686C128.517 64.4868 132.812 68.8622 138.085 68.8622H139.464C144.418 68.8418 149.532 69.0667 154.266 70.2934Z" fill="#E57281"/>
<path d="M128.498 48.314V51.0538L87.4258 68.8417L107.243 34.9629L128.498 48.314Z" fill="#9A3B82"/>
<path d="M129.613 49.6419H134.128C138.283 49.6419 141.659 46.1865 141.659 41.9337V16.1924H114.711V34.3892C114.711 42.8129 121.383 49.6419 129.613 49.6419Z" fill="#E57281"/>
<path fill-rule="evenodd" clip-rule="evenodd" d="M137.456 38.1397L137.456 38.1393L137.456 38.1386L137.455 38.1378C137.455 38.1376 137.455 38.1377 137.455 38.138C137.455 38.138 137.455 38.138 137.455 38.138M137.455 38.138C137.455 38.1381 137.455 38.1382 137.456 38.1384C137.456 38.1397 137.458 38.1428 137.461 38.1476C137.467 38.1572 137.477 38.1737 137.492 38.196C137.522 38.2406 137.57 38.3083 137.637 38.3915C137.771 38.5583 137.979 38.7852 138.27 39.0132C138.846 39.4655 139.756 39.9301 141.08 39.9301C141.356 39.9301 141.579 40.1589 141.579 40.4412C141.579 40.7235 141.356 40.9524 141.08 40.9524C139.507 40.9524 138.389 40.3946 137.662 39.8246C137.301 39.5415 137.039 39.2572 136.865 39.0406C136.778 38.9321 136.713 38.8401 136.668 38.7729C136.645 38.7393 136.628 38.7118 136.615 38.6915C136.609 38.6813 136.604 38.673 136.6 38.6665L136.596 38.6583L136.594 38.6553L136.593 38.6541L136.593 38.6535C136.593 38.6533 136.592 38.653 137.025 38.3966" fill="#73325A"/>
<path d="M138.462 32.2023C138.991 32.2023 139.421 31.351 139.421 30.3009C139.421 29.2507 138.991 28.3994 138.462 28.3994C137.932 28.3994 137.503 29.2507 137.503 30.3009C137.503 31.351 137.932 32.2023 138.462 32.2023Z" fill="#73325A"/>
<path d="M119.846 18.8715C119.846 18.8715 142.08 32.6111 149.312 20.6503C155.664 10.1615 127.517 4.7638 117.689 4.72291C107.001 4.68202 92.838 9.5277 93.0777 25.6186C93.2775 38.8675 93.8168 58.2503 86.1458 54.8767C58.8579 42.8954 34.6065 55.4083 34.5265 79.2482C34.4466 103.088 61.4749 105.317 62.1541 99.1625C62.8532 93.0287 45.3738 94.4395 47.731 110.367C50.0683 126.294 60.496 146.208 84.308 146.208C113.074 146.229 131.393 107.464 113.594 103.517C99.9496 100.491 127.497 127.439 135.668 99.4283C144.457 69.2706 112.695 59.3952 111.916 41.1779C111.136 22.9607 119.846 18.8715 119.846 18.8715Z" fill="#FFCF2D"/>
<path fill-rule="evenodd" clip-rule="evenodd" d="M101.014 8.6929C105.968 5.40393 112.287 4.1915 117.691 4.21217C122.659 4.23284 132.208 5.60146 139.733 8.28639C143.486 9.62557 146.807 11.3162 148.79 13.3849C149.787 14.4259 150.471 15.589 150.673 16.8754C150.877 18.1699 150.582 19.5244 149.737 20.9196C147.832 24.0696 144.935 25.5175 141.719 25.926C138.521 26.3322 134.988 25.716 131.727 24.7371C128.459 23.7563 125.427 22.3997 123.214 21.2909C122.107 20.736 121.203 20.2419 120.574 19.8861C120.26 19.7082 120.015 19.5647 119.848 19.4654C119.843 19.4629 119.839 19.4605 119.835 19.458C119.804 19.4764 119.77 19.4969 119.734 19.5198C119.515 19.6561 119.196 19.8738 118.813 20.1924C118.046 20.8291 117.018 21.8699 116.009 23.4708C113.993 26.6675 112.029 32.1356 112.415 41.156C112.603 45.5556 114.662 49.4866 117.589 53.4145C119.051 55.3766 120.719 57.3246 122.464 59.3224C122.761 59.6625 123.06 60.0041 123.36 60.3474C124.822 62.0164 126.319 63.7255 127.764 65.4985C131.249 69.7749 134.466 74.4644 136.249 80.0062C138.036 85.56 138.372 91.9387 136.147 99.5748C134.076 106.673 130.743 110.397 127.041 111.933C125.085 112.745 123.059 112.931 121.115 112.709C121.198 116.868 119.644 121.818 116.842 126.613C110.829 136.902 98.9148 146.73 84.3081 146.72C72.2476 146.72 63.5528 141.669 57.5888 134.595C51.6369 127.535 48.4164 118.477 47.2375 110.443C46.6652 106.575 47.2303 103.502 48.4518 101.155C48.2586 101.082 48.0653 101.007 47.8722 100.929C40.8857 98.0983 33.9867 91.4146 34.0275 79.2468C34.0681 67.1272 40.2645 57.8618 49.9193 53.1682C59.5588 48.482 72.5964 48.3716 86.3431 54.4073L86.3434 54.4075C87.2226 54.7941 87.9273 54.8315 88.5039 54.6446C89.0845 54.4565 89.6093 54.017 90.0801 53.3053C91.0356 51.8607 91.6706 49.4433 92.0687 46.4133C92.8145 40.7391 92.6972 33.2261 92.5973 26.8266C92.591 26.422 92.5847 26.0219 92.5788 25.6268C92.4561 17.3953 96.0317 12.0007 101.014 8.6929ZM49.41 101.491C48.2522 103.633 47.6677 106.524 48.2252 110.291L48.2253 110.291C49.3836 118.185 52.5456 127.048 58.345 133.927C64.1321 140.791 72.5571 145.698 84.3084 145.698H84.3088C98.4682 145.708 110.097 136.163 115.985 126.088C118.771 121.32 120.237 116.49 120.111 112.558C118.751 112.303 117.445 111.861 116.246 111.309C114.653 110.575 113.234 109.64 112.107 108.671C110.987 107.708 110.127 106.686 109.689 105.765C109.47 105.306 109.338 104.832 109.366 104.385C109.395 103.914 109.602 103.497 110 103.206C110.377 102.931 110.885 102.797 111.482 102.77C112.085 102.743 112.822 102.824 113.7 103.018C116.02 103.533 117.786 104.624 119.013 106.163C120.21 107.664 120.867 109.556 121.058 111.673C122.915 111.909 124.833 111.746 126.666 110.985C130 109.602 133.175 106.189 135.189 99.2825C137.359 91.8398 137.021 85.6749 135.3 80.326C133.575 74.965 130.451 70.3925 126.997 66.1533C125.564 64.3955 124.081 62.7023 122.62 61.0335C122.318 60.6893 122.018 60.3461 121.719 60.0036C119.974 58.0049 118.283 56.0311 116.795 54.0344C113.822 50.0447 111.618 45.9097 111.417 41.2007C111.024 32.0038 113.025 26.3187 115.169 22.9165C116.24 21.2179 117.341 20.0978 118.183 19.3985C118.604 19.0491 118.96 18.805 119.214 18.6465C119.342 18.5672 119.444 18.5093 119.516 18.4703C119.552 18.4508 119.58 18.436 119.601 18.4256C119.611 18.4204 119.62 18.4163 119.626 18.4132L119.634 18.4095L119.638 18.4077C119.638 18.4075 119.638 18.4073 119.847 18.8719L119.638 18.4073L119.879 18.2945L120.105 18.4343L120.098 18.4457C120.105 18.4343 120.105 18.4343 120.105 18.4343L120.105 18.4347L120.108 18.4362L120.119 18.4431C120.129 18.4493 120.145 18.4587 120.165 18.4711C120.206 18.496 120.268 18.533 120.349 18.5811C120.511 18.6772 120.75 18.8173 121.058 18.9917C121.674 19.3405 122.563 19.8264 123.653 20.3727C125.836 21.4664 128.813 22.7971 132.008 23.7561C135.209 24.717 138.591 25.2931 141.596 24.9115C144.582 24.5321 147.176 23.2122 148.887 20.3817L148.888 20.3814C149.631 19.1545 149.846 18.046 149.687 17.0377C149.527 16.0211 148.978 15.0414 148.077 14.1008C146.261 12.2061 143.122 10.5782 139.404 9.25171C131.987 6.6054 122.548 5.25471 117.687 5.23446M120.037 111.502C119.831 109.655 119.237 108.061 118.239 106.809C117.173 105.473 115.617 104.489 113.488 104.017C112.661 103.834 112.014 103.77 111.525 103.792C111.031 103.814 110.74 103.921 110.58 104.038C110.441 104.14 110.374 104.267 110.363 104.45C110.35 104.655 110.41 104.946 110.587 105.318C110.94 106.06 111.686 106.974 112.749 107.889C113.806 108.797 115.147 109.681 116.656 110.376C117.72 110.867 118.86 111.26 120.037 111.502ZM49.41 101.491C52.3735 102.459 55.275 102.759 57.5923 102.508C58.9487 102.362 60.1357 102.023 61.0213 101.493C61.9095 100.961 62.542 100.202 62.6506 99.2212C62.7528 98.3227 62.5205 97.5366 62.028 96.9097C61.5433 96.2928 60.8316 95.8602 60.0134 95.5983C58.3815 95.0757 56.2183 95.194 54.1412 96.0153C52.2092 96.7793 50.3197 98.1635 48.9708 100.26C48.7273 100.171 48.4836 100.077 48.2398 99.9782C41.5624 97.273 34.9872 90.9224 35.0263 79.2503C35.0656 67.53 41.035 58.619 50.3478 54.0916C59.676 49.5567 72.408 49.4013 85.9491 55.3467C86.9877 55.8035 87.9441 55.8983 88.8055 55.6192C89.6629 55.3413 90.3529 54.7164 90.9072 53.8784C92.0018 52.2236 92.6578 49.5998 93.0587 46.5496C93.8149 40.7955 93.6962 33.2097 93.5964 26.8351C93.5899 26.4217 93.5835 26.0135 93.5775 25.6112C93.4604 17.7518 96.8466 12.6781 101.558 9.55057C106.297 6.40424 112.404 5.21427 117.687 5.23446M49.9559 100.595C51.1665 98.8214 52.8125 97.6367 54.5011 96.9689C56.4119 96.2134 58.3401 96.1336 59.7152 96.5739C60.4006 96.7934 60.9213 97.1325 61.2496 97.5503C61.5697 97.9578 61.7307 98.469 61.6584 99.1036L61.6582 99.1055C61.5967 99.6626 61.2361 100.18 60.5168 100.611C59.7946 101.043 58.7592 101.354 57.4874 101.492C55.3829 101.719 52.7151 101.462 49.9559 100.595Z" fill="white"/>
<path fill-rule="evenodd" clip-rule="evenodd" d="M134.19 30.424H118.289V29.1973H134.19V30.424Z" fill="#3FB1B5"/>
<path fill-rule="evenodd" clip-rule="evenodd" d="M139.085 25.1086C137.053 25.1086 135.169 27.3375 135.169 30.4245C135.169 33.5116 137.053 35.7405 139.085 35.7405C141.117 35.7405 143 33.5116 143 30.4245C143 27.3375 141.117 25.1086 139.085 25.1086ZM133.971 30.4245C133.971 26.9623 136.13 23.8818 139.085 23.8818C142.04 23.8818 144.199 26.9622 144.199 30.4245C144.199 33.8868 142.04 36.9672 139.085 36.9672C136.13 36.9672 133.971 33.8868 133.971 30.4245Z" fill="#3FB1B5"/>
<path fill-rule="evenodd" clip-rule="evenodd" d="M114.433 1.22675C112.228 1.22675 110.457 3.05632 110.457 5.29549V22.5109H109.259V5.29549C109.259 2.3823 111.563 0 114.433 0H119.427C122.273 0 124.601 2.35837 124.601 5.29549H123.402C123.402 3.03936 121.615 1.22675 119.427 1.22675H114.433Z" fill="#66B0F0"/>
<path d="M114.673 41.4641H105.064C102.607 41.4641 100.609 39.4195 100.609 36.9047V27.0702C100.609 24.5553 102.607 22.5107 105.064 22.5107H114.673C117.13 22.5107 119.128 24.5553 119.128 27.0702V36.9047C119.108 39.4195 117.13 41.4641 114.673 41.4641Z" fill="white"/>
<path fill-rule="evenodd" clip-rule="evenodd" d="M105.064 23.1242C102.938 23.1242 101.208 24.8942 101.208 27.0703V36.9047C101.208 39.0808 102.938 40.8508 105.064 40.8508H114.673C116.793 40.8508 118.509 39.0856 118.528 36.9021V27.0703C118.528 24.8942 116.799 23.1242 114.673 23.1242H105.064ZM100.01 27.0703C100.01 24.2167 102.276 21.8975 105.064 21.8975H114.673C117.461 21.8975 119.727 24.2167 119.727 27.0703V36.9072L119.727 36.9097C119.704 39.7549 117.465 42.0775 114.673 42.0775H105.064C102.276 42.0775 100.01 39.7583 100.01 36.9047V27.0703Z" fill="#66B0F0"/>
<path d="M112.176 38.2137H107.481C105.464 38.2137 103.806 36.5371 103.806 34.4516V29.6468C103.806 27.5818 105.444 25.8848 107.481 25.8848H112.176C114.193 25.8848 115.852 27.5613 115.852 29.6468V34.4516C115.852 36.5371 114.213 38.2137 112.176 38.2137Z" fill="white"/>
<path fill-rule="evenodd" clip-rule="evenodd" d="M107.482 26.4982C105.778 26.4982 104.406 27.9185 104.406 29.6469V34.4517C104.406 36.1962 105.793 37.6004 107.482 37.6004H112.177C113.883 37.6004 115.253 36.1984 115.253 34.4517V29.6469C115.253 27.9024 113.865 26.4982 112.177 26.4982H107.482ZM103.207 29.6469C103.207 27.2453 105.111 25.2715 107.482 25.2715H112.177C114.523 25.2715 116.452 27.2205 116.452 29.6469V34.4517C116.452 36.8759 114.545 38.8271 112.177 38.8271H107.482C105.136 38.8271 103.207 36.8781 103.207 34.4517V29.6469Z" fill="#66B0F0"/>
<path fill-rule="evenodd" clip-rule="evenodd" d="M105.204 37.3747L113.554 26.0068L114.512 26.744L106.162 38.1119L105.204 37.3747Z" fill="#66B0F0"/>
<path fill-rule="evenodd" clip-rule="evenodd" d="M103.567 35.4302L110.799 25.6162L111.756 26.3549L104.524 36.1688L103.567 35.4302Z" fill="#66B0F0"/>
<path fill-rule="evenodd" clip-rule="evenodd" d="M107.94 37.8434L115.172 28.0293L116.129 28.768L108.897 38.582L107.94 37.8434Z" fill="#66B0F0"/>
<path fill-rule="evenodd" clip-rule="evenodd" d="M110.839 37.8437L115.374 31.6895L116.331 32.4281L111.796 38.5823L110.839 37.8437Z" fill="#66B0F0"/>
<path fill-rule="evenodd" clip-rule="evenodd" d="M103.348 31.7295L107.862 25.6162L108.818 26.3559L104.304 32.4692L103.348 31.7295Z" fill="#66B0F0"/>
<path fill-rule="evenodd" clip-rule="evenodd" d="M102.147 325.803V314.843H103.346V325.803C103.346 331.424 98.7625 335.988 93.1177 335.988H68.4268V334.794H93.1177C98.1005 334.794 102.147 330.765 102.147 325.803Z" fill="#66B0F0"/>
<path fill-rule="evenodd" clip-rule="evenodd" d="M111.358 415.517V314.963H112.557V415.517H111.358Z" fill="#66B0F0"/>
<path fill-rule="evenodd" clip-rule="evenodd" d="M106.903 416.113C85.2206 416.113 67.849 430.395 67.849 447.762H66.6504C66.6504 429.521 84.797 414.92 106.903 414.92H116.851C138.957 414.92 157.104 429.521 157.104 447.762H155.905C155.905 430.395 138.534 416.113 116.851 416.113H106.903Z" fill="#66B0F0"/>
<path d="M208.022 316.494H62.9922C55.7208 316.494 49.8477 310.626 49.8477 303.405H211.458L208.022 316.494Z" fill="#FFCF2D"/>
<path d="M66.3705 469.085C72.2841 469.085 77.078 464.311 77.078 458.423C77.078 452.534 72.2841 447.761 66.3705 447.761C60.457 447.761 55.6631 452.534 55.6631 458.423C55.6631 464.311 60.457 469.085 66.3705 469.085Z" fill="#FFCF2D"/>
<path d="M60.9155 338.117H82.4103C84.1682 338.117 85.5865 336.705 85.5865 334.954V334.715C85.5865 332.965 84.1682 331.553 82.4103 331.553H60.9155C59.1576 331.553 57.7393 332.965 57.7393 334.715V334.954C57.7393 336.705 59.1576 338.117 60.9155 338.117Z" fill="#FFCF2D"/>
<path fill-rule="evenodd" clip-rule="evenodd" d="M16.044 211.286C13.3883 203.857 18.9108 196.048 26.8366 196.048H102.488C109.853 196.048 116.411 200.663 118.893 207.563L118.894 207.564L153.599 304.4H49.4272L16.044 211.286ZM17.1731 210.886C14.7952 204.232 19.7404 197.241 26.8366 197.241H102.488C109.345 197.241 115.453 201.538 117.765 207.966L151.898 303.206H50.272L17.1732 210.886C17.1732 210.886 17.1731 210.886 17.1731 210.886Z" fill="#FFCF2D"/>
<path fill-rule="evenodd" clip-rule="evenodd" d="M19.2461 199.608H95.836C102.962 199.608 109.3 204.064 111.702 210.746L111.703 210.746L145.249 304.4H54.9441V303.206H143.549L110.574 211.148C108.342 204.94 102.454 200.802 95.836 200.802H19.2461V199.608Z" fill="#FFCF2D"/>
<path d="M156.325 469.085C162.238 469.085 167.032 464.311 167.032 458.423C167.032 452.534 162.238 447.761 156.325 447.761C150.411 447.761 145.617 452.534 145.617 458.423C145.617 464.311 150.411 469.085 156.325 469.085Z" fill="#FFCF2D"/>
</g>
<defs>
<filter id="filter0_dd_2435_8152" x="0" y="0" width="443.001" height="489" filterUnits="userSpaceOnUse" color-interpolation-filters="sRGB">
<feFlood flood-opacity="0" result="BackgroundImageFix"/>
<feColorMatrix in="SourceAlpha" type="matrix" values="0 0 0 0 0 0 0 0 0 0 0 0 0 0 0 0 0 0 127 0" result="hardAlpha"/>
<feOffset dy="4"/>
<feGaussianBlur stdDeviation="2"/>
<feComposite in2="hardAlpha" operator="out"/>
<feColorMatrix type="matrix" values="0 0 0 0 0 0 0 0 0 0 0 0 0 0 0 0 0 0 0.25 0"/>
<feBlend mode="normal" in2="BackgroundImageFix" result="effect1_dropShadow_2435_8152"/>
<feColorMatrix in="SourceAlpha" type="matrix" values="0 0 0 0 0 0 0 0 0 0 0 0 0 0 0 0 0 0 127 0" result="hardAlpha"/>
<feOffset dy="4"/>
<feGaussianBlur stdDeviation="2"/>
<feComposite in2="hardAlpha" operator="out"/>
<feColorMatrix type="matrix" values="0 0 0 0 0 0 0 0 0 0 0 0 0 0 0 0 0 0 0.25 0"/>
<feBlend mode="normal" in2="effect1_dropShadow_2435_8152" result="effect2_dropShadow_2435_8152"/>
<feBlend mode="normal" in="SourceGraphic" in2="effect2_dropShadow_2435_8152" result="shape"/>
</filter>
</defs>
</svg>
